<svg xmlns="http://www.w3.org/2000/svg" width="846" height="647" fill="none" viewBox="0 0 846 647"><path fill="#231F20" d="M685.831 138.099C685.831 138.099 680.924 128.914 673.141 116.23C673.141 116.23 648.142 135.18 648.332 134.129C648.522 133.077 685.831 138.099 685.831 138.099Z"/><path fill="#231F20" d="M685.831 139.172H685.683C672.528 137.391 651.06 134.751 648.713 135.073C648.099 135.33 647.909 135.202 647.698 135.073C647.515 134.948 647.372 134.772 647.286 134.566C647.199 134.361 647.173 134.134 647.211 133.914C647.211 133.614 647.338 133.313 648.036 133.141C649.474 132.562 663.772 121.939 672.422 115.372C672.538 115.283 672.672 115.219 672.814 115.186C672.956 115.153 673.104 115.15 673.247 115.179C673.39 115.202 673.526 115.257 673.646 115.338C673.766 115.42 673.868 115.526 673.945 115.651C681.749 128.227 686.635 137.498 686.762 137.584C686.85 137.747 686.895 137.932 686.891 138.118C686.888 138.305 686.837 138.487 686.743 138.647C686.649 138.808 686.515 138.94 686.355 139.032C686.196 139.124 686.015 139.172 685.831 139.172ZM651.991 133.077C656.602 133.335 665.717 134.343 683.822 136.768C682.066 133.571 678.111 126.553 672.697 117.797C661.403 126.381 655.375 130.824 652.054 133.077H651.991Z"/><path fill="#231F20" d="M354.58 520.855L342.102 499.737L359.381 483.899L354.58 520.855Z"/><path fill="#231F20" d="M354.579 521.928C354.398 521.925 354.219 521.876 354.061 521.787C353.902 521.697 353.768 521.568 353.67 521.413L341.191 500.295C341.066 500.08 341.018 499.827 341.057 499.581C341.096 499.334 341.218 499.108 341.403 498.943L358.661 483.105C358.823 482.957 359.025 482.864 359.241 482.837C359.456 482.81 359.675 482.851 359.867 482.955C360.056 483.061 360.209 483.221 360.307 483.416C360.405 483.612 360.444 483.832 360.417 484.049L355.637 520.941C355.61 521.165 355.513 521.376 355.361 521.541C355.209 521.707 355.01 521.82 354.791 521.864L354.579 521.928ZM343.454 499.952L354.029 517.657L358.048 486.646L343.454 499.952Z"/><path fill="#231F20" d="M362.68 525.233L563.605 554.27C567.726 554.823 571.907 553.867 575.396 551.574C578.884 549.281 581.453 545.8 582.64 541.758L686.614 147.091C688.729 138.914 683.589 131.725 675.066 131.017L470.186 114.256C466.135 114.054 462.136 115.239 458.83 117.621C455.523 120.003 453.102 123.443 451.954 127.39L352.19 509.008C351.672 510.779 351.541 512.644 351.806 514.471C352.071 516.299 352.726 518.046 353.725 519.591C354.724 521.135 356.042 522.44 357.589 523.415C359.135 524.389 360.873 525.01 362.68 525.233Z"/><path fill="#231F20" d="M565.826 555.579C565.013 555.574 564.2 555.517 563.394 555.407L362.469 526.349C360.526 526.106 358.657 525.442 356.989 524.402C355.321 523.361 353.893 521.969 352.803 520.318C351.719 518.623 351.006 516.711 350.71 514.712C350.415 512.713 350.544 510.673 351.09 508.729L450.855 127.175C452.075 122.984 454.644 119.328 458.152 116.791C461.66 114.255 465.904 112.985 470.207 113.183L675.087 129.944C677.164 130.069 679.188 130.657 681.016 131.666C682.843 132.675 684.43 134.08 685.662 135.781C686.795 137.454 687.547 139.362 687.861 141.367C688.176 143.372 688.046 145.423 687.481 147.37L583.507 542.037C582.376 545.917 580.048 549.326 576.865 551.763C573.683 554.201 569.813 555.538 565.826 555.579ZM362.786 524.224L563.711 553.282C567.585 553.807 571.516 552.913 574.799 550.762C578.083 548.61 580.503 545.342 581.625 541.543L685.514 146.898C686.004 145.253 686.124 143.518 685.864 141.821C685.604 140.123 684.971 138.506 684.012 137.09C682.954 135.633 681.588 134.433 680.015 133.579C678.441 132.726 676.7 132.239 674.918 132.154L470.038 115.329C466.229 115.126 462.465 116.234 459.356 118.474C456.246 120.714 453.973 123.954 452.906 127.669L353.205 509.287C352.733 510.937 352.615 512.669 352.859 514.369C353.104 516.068 353.705 517.695 354.622 519.138C355.554 520.53 356.768 521.705 358.183 522.582C359.598 523.459 361.182 524.019 362.828 524.224H362.786Z"/><path fill="#fff" d="M349.61 503.514L550.534 532.551C554.654 533.096 558.831 532.136 562.318 529.844C565.805 527.552 568.375 524.077 569.569 520.039L673.522 125.373C675.637 117.196 670.497 110.007 661.974 109.298L457.052 92.5373C452.999 92.3381 448.999 93.524 445.689 95.9053C442.38 98.2865 439.954 101.725 438.799 105.671L339.098 487.226C338.569 489.002 338.431 490.875 338.692 492.712C338.953 494.549 339.607 496.305 340.609 497.858C341.611 499.411 342.936 500.722 344.491 501.699C346.046 502.676 347.793 503.296 349.61 503.514Z"/><path fill="#231F20" d="M552.756 533.817C551.942 533.813 551.13 533.756 550.323 533.646L349.398 504.587C347.455 504.345 345.586 503.681 343.918 502.64C342.251 501.6 340.823 500.207 339.733 498.557C338.648 496.862 337.933 494.95 337.638 492.951C337.342 490.952 337.472 488.912 338.02 486.968L437.805 105.414C439.027 101.226 441.598 97.5756 445.106 95.0464C448.615 92.5172 452.859 91.2559 457.158 91.4642L661.995 108.225C664.09 108.337 666.134 108.918 667.981 109.928C669.828 110.937 671.431 112.349 672.676 114.063C673.804 115.738 674.552 117.646 674.867 119.65C675.181 121.654 675.054 123.703 674.495 125.652L570.522 520.318C569.378 524.204 567.034 527.614 563.835 530.045C560.636 532.475 556.752 533.798 552.756 533.817ZM455.825 93.5674C452.227 93.6685 448.751 94.9202 445.895 97.1439C443.039 99.3675 440.948 102.45 439.92 105.95L340.135 487.505C339.662 489.154 339.544 490.887 339.789 492.586C340.033 494.285 340.634 495.912 341.552 497.355C342.483 498.747 343.697 499.922 345.113 500.799C346.528 501.676 348.112 502.236 349.758 502.441L550.683 531.499C554.547 532.008 558.463 531.106 561.732 528.956C565.002 526.806 567.412 523.547 568.533 519.76L672.443 125.115C672.929 123.47 673.046 121.736 672.786 120.039C672.527 118.342 671.896 116.725 670.942 115.307C669.881 113.847 668.512 112.646 666.935 111.792C665.357 110.938 663.612 110.453 661.826 110.371L456.967 93.6103L455.825 93.5674Z"/><path fill="#59C3C3" d="M653.62 151.34L443.875 132.905L363.399 440.784L570.077 468.662L653.62 151.34Z"/><path fill="#fff" d="M561.618 426.234C561.417 426.235 561.22 426.176 561.051 426.066C560.882 425.955 560.748 425.797 560.666 425.611L518.366 334.853C518.305 334.725 518.27 334.586 518.263 334.444C518.256 334.302 518.276 334.16 518.324 334.026C518.371 333.892 518.444 333.77 518.538 333.665C518.633 333.56 518.747 333.475 518.874 333.415C519.126 333.297 519.414 333.286 519.676 333.382C519.937 333.478 520.15 333.675 520.27 333.93L562.569 424.71C562.63 424.836 562.664 424.974 562.671 425.114C562.678 425.254 562.658 425.395 562.61 425.527C562.563 425.659 562.49 425.78 562.396 425.883C562.302 425.986 562.188 426.069 562.062 426.126C561.922 426.192 561.771 426.228 561.618 426.234Z"/><path fill="#fff" d="M432.624 501.218L471.836 506.819C474.326 507.13 476.845 506.533 478.941 505.133C481.037 503.734 482.574 501.623 483.278 499.179L487.17 484.35C487.496 483.224 487.573 482.039 487.396 480.879C487.219 479.719 486.792 478.613 486.146 477.639C485.5 476.666 484.65 475.849 483.657 475.247C482.664 474.645 481.553 474.272 480.402 474.156L441.147 468.748C438.68 468.474 436.197 469.09 434.133 470.486C432.068 471.883 430.553 473.972 429.853 476.388L425.983 491.089C425.657 492.201 425.576 493.373 425.746 494.521C425.916 495.669 426.332 496.765 426.966 497.731C427.599 498.698 428.435 499.511 429.412 500.114C430.39 500.716 431.486 501.093 432.624 501.218Z"/><path fill="#E6E7E8" d="M473.147 508.064C472.659 508.071 472.171 508.035 471.688 507.957L432.476 502.377C431.191 502.227 429.954 501.793 428.852 501.107C427.749 500.422 426.808 499.5 426.093 498.406C425.378 497.313 424.906 496.074 424.712 494.777C424.518 493.48 424.605 492.155 424.968 490.895L428.817 476.195C429.587 473.525 431.261 471.218 433.544 469.678C435.827 468.139 438.572 467.468 441.295 467.782L480.55 473.169C481.856 473.325 483.113 473.764 484.237 474.457C485.361 475.149 486.325 476.078 487.064 477.182C487.77 478.284 488.235 479.526 488.428 480.825C488.622 482.124 488.539 483.451 488.185 484.715L484.336 499.48C483.633 501.944 482.164 504.111 480.147 505.658C478.131 507.206 475.675 508.049 473.147 508.064ZM432.772 500.252L471.984 505.832C474.216 506.108 476.472 505.571 478.35 504.317C480.228 503.064 481.607 501.175 482.242 498.986L486.155 484.157C486.425 483.185 486.489 482.166 486.344 481.167C486.198 480.169 485.845 479.213 485.309 478.362C484.732 477.518 483.984 476.808 483.117 476.279C482.249 475.75 481.28 475.414 480.275 475.293L440.999 469.907C438.789 469.649 436.559 470.192 434.706 471.441C432.852 472.69 431.493 474.564 430.869 476.731L427.019 491.453C426.73 492.419 426.655 493.437 426.799 494.435C426.943 495.434 427.303 496.387 427.853 497.228C428.402 498.069 429.128 498.776 429.979 499.299C430.829 499.822 431.783 500.147 432.772 500.252Z"/><path fill="#D1D3D4" d="M591.565 124.879L531.647 119.793C531.508 119.78 531.373 119.74 531.25 119.674C531.126 119.608 531.017 119.519 530.927 119.41C530.838 119.302 530.771 119.176 530.729 119.041C530.687 118.906 530.672 118.764 530.685 118.623C530.697 118.482 530.737 118.345 530.802 118.22C530.867 118.095 530.955 117.983 531.062 117.893C531.169 117.802 531.293 117.734 531.426 117.691C531.559 117.649 531.699 117.634 531.838 117.647L591.734 122.711C592.015 122.711 592.284 122.825 592.482 123.026C592.681 123.227 592.792 123.5 592.792 123.784C592.792 124.069 592.681 124.342 592.482 124.543C592.284 124.744 592.015 124.858 591.734 124.858L591.565 124.879Z"/><path fill="#D1D3D4" d="M523.336 119.084L515.383 118.419C515.245 118.408 515.11 118.37 514.987 118.305C514.864 118.241 514.755 118.152 514.666 118.044C514.577 117.936 514.511 117.811 514.47 117.676C514.43 117.542 514.417 117.4 514.432 117.26C514.458 116.978 514.593 116.716 514.806 116.532C515.019 116.348 515.294 116.255 515.574 116.273L523.505 116.96C523.785 116.96 524.054 117.073 524.253 117.274C524.451 117.475 524.562 117.748 524.562 118.033C524.562 118.317 524.451 118.59 524.253 118.792C524.054 118.993 523.785 119.106 523.505 119.106L523.336 119.084Z"/><path fill="#231F20" d="M582.175 321.225C582.175 321.225 607.936 235.038 585.601 215.938L476.298 202.589C476.298 202.589 457.559 222.397 454.852 237.613C452.145 252.829 429.472 285.235 437.932 304.571L582.175 321.225Z"/><path fill="#231F20" d="M582.175 322.298H582.069L437.805 305.623C437.624 305.601 437.451 305.532 437.303 305.423C437.155 305.314 437.037 305.169 436.959 305.001C431.101 291.566 439.666 272.187 446.561 256.606C449.966 248.923 452.906 242.27 453.752 237.42C456.481 222.054 474.691 202.653 475.473 201.838C475.587 201.718 475.726 201.627 475.88 201.571C476.034 201.515 476.199 201.496 476.362 201.516L585.665 214.886C585.865 214.914 586.055 214.995 586.215 215.122C608.824 234.437 584.1 318.006 583.127 321.547C583.062 321.756 582.937 321.94 582.767 322.074C582.597 322.208 582.39 322.286 582.175 322.298ZM438.736 303.563L581.414 320.066C583.994 311.096 605.123 234.78 585.157 217.054L476.7 203.791C474.12 206.624 458.3 224.308 455.888 237.892C454.979 243 451.997 249.76 448.549 257.572C442.035 272.444 433.723 291.008 438.736 303.563Z"/><path fill="#231F20" d="M592.496 323.758H592.348L409.676 297.747C409.402 297.704 409.156 297.555 408.99 297.33C408.824 297.105 408.751 296.823 408.788 296.545C408.824 296.263 408.97 296.008 409.192 295.835C409.414 295.662 409.694 295.586 409.972 295.622L592.644 321.633C592.924 321.675 593.175 321.827 593.345 322.056C593.515 322.285 593.59 322.572 593.554 322.856C593.509 323.108 593.379 323.336 593.186 323.501C592.993 323.666 592.749 323.757 592.496 323.758Z"/><path fill="#fff" d="M585.601 215.938C585.601 215.938 574.518 217.483 567.729 240.875C557.345 276.672 543.66 352.215 535.01 380.629C522.32 421.963 488.48 427.843 488.48 427.843L345.4 406.79C345.4 406.79 403.626 386.316 413.461 351.507C423.803 314.83 438.122 245.532 441.992 230.059C448.824 202.653 476.361 202.653 476.361 202.653L585.601 215.938Z"/><path fill="#231F20" d="M488.417 428.852H488.269L345.189 407.799C344.954 407.762 344.737 407.648 344.572 407.473C344.408 407.298 344.305 407.073 344.279 406.833C344.256 406.595 344.313 406.355 344.439 406.153C344.566 405.951 344.755 405.797 344.977 405.717C345.57 405.524 402.823 385.007 412.382 351.142C419.552 325.711 428.753 284.119 434.823 256.585C437.551 244.245 439.708 234.48 440.893 229.737C447.851 201.838 476.023 201.516 476.298 201.516L585.728 214.886C585.982 214.917 586.217 215.041 586.388 215.235C586.559 215.428 586.655 215.678 586.658 215.938C586.657 216.197 586.564 216.447 586.398 216.643C586.231 216.84 586.001 216.97 585.749 217.011C585.58 217.011 575.174 218.964 568.829 241.176C563.563 259.289 557.493 287.531 551.592 314.851C545.839 341.613 540.382 366.894 536.11 380.951C529.511 402.605 517.075 414.473 507.642 420.611C501.86 424.541 495.404 427.336 488.607 428.852H488.417ZM349.525 406.275L488.396 426.706C490.87 426.191 522.236 419.087 533.995 380.307C538.225 366.336 543.703 341.098 549.456 314.401C555.335 287.038 561.448 258.752 566.714 240.575C571.177 225.23 577.479 219.114 581.519 216.517L476.171 203.641C475.198 203.641 449.501 204.005 442.944 230.274C441.781 234.974 439.624 244.717 436.895 257.057C430.804 284.613 421.604 326.247 414.413 351.743C409.231 370.049 390.788 384.32 376.216 393.055C367.658 398.134 358.736 402.554 349.525 406.275Z"/><path fill="#D1D3D4" d="M516.822 383.14H516.695L497.343 380.994C497.066 380.962 496.812 380.819 496.638 380.598C496.464 380.377 496.383 380.095 496.412 379.814C496.425 379.673 496.466 379.537 496.532 379.413C496.598 379.289 496.688 379.179 496.797 379.091C496.905 379.003 497.03 378.938 497.164 378.9C497.298 378.862 497.438 378.851 497.576 378.869L516.949 381.015C517.226 381.048 517.48 381.19 517.654 381.411C517.828 381.632 517.909 381.914 517.88 382.196C517.844 382.456 517.718 382.694 517.524 382.867C517.33 383.041 517.081 383.137 516.822 383.14Z"/><path fill="#D1D3D4" d="M481.734 379.105H481.607L423.677 372.431C423.4 372.399 423.146 372.256 422.972 372.035C422.798 371.814 422.717 371.532 422.746 371.251C422.759 371.11 422.8 370.974 422.866 370.85C422.932 370.726 423.022 370.616 423.131 370.528C423.239 370.44 423.364 370.375 423.498 370.337C423.632 370.299 423.772 370.288 423.909 370.306L481.861 376.959C482.141 376.976 482.403 377.106 482.59 377.319C482.776 377.532 482.871 377.812 482.855 378.097C482.838 378.381 482.71 378.647 482.5 378.836C482.29 379.026 482.014 379.122 481.734 379.105Z"/><path fill="#D1D3D4" d="M499.521 405.567H499.394L481.607 403.421C481.468 403.404 481.334 403.359 481.212 403.29C481.09 403.22 480.983 403.127 480.897 403.015C480.81 402.904 480.746 402.776 480.708 402.639C480.671 402.503 480.66 402.36 480.677 402.219C480.693 402.078 480.737 401.942 480.806 401.818C480.874 401.694 480.966 401.585 481.076 401.498C481.186 401.41 481.312 401.345 481.447 401.307C481.581 401.269 481.722 401.258 481.861 401.275L499.648 403.421C499.787 403.429 499.923 403.465 500.048 403.527C500.173 403.589 500.285 403.675 500.377 403.78C500.47 403.886 500.541 404.009 500.586 404.143C500.631 404.276 500.651 404.417 500.642 404.558C500.634 404.699 500.598 404.837 500.537 404.964C500.477 405.091 500.392 405.204 500.288 405.298C500.184 405.392 500.062 405.464 499.931 405.51C499.799 405.556 499.66 405.575 499.521 405.567Z"/><path fill="#D1D3D4" d="M461.895 401.232H461.768L406.376 394.793C406.096 394.762 405.839 394.619 405.663 394.396C405.486 394.172 405.404 393.887 405.435 393.602C405.466 393.318 405.607 393.057 405.827 392.878C406.047 392.699 406.328 392.616 406.609 392.647L462.022 399.085C462.299 399.118 462.552 399.26 462.727 399.481C462.901 399.702 462.982 399.984 462.952 400.266C462.922 400.53 462.797 400.773 462.603 400.951C462.408 401.128 462.157 401.228 461.895 401.232Z"/><path fill="#fff" d="M488.417 427.779C480.048 419.932 473.611 410.201 469.625 399.369C465.639 388.536 464.216 376.906 465.47 365.413L315.305 337.922C315.305 337.922 328.185 388.934 345.317 406.726L488.417 427.779Z"/><path fill="#231F20" d="M488.416 428.852H488.268L345.189 407.799C344.956 407.758 344.742 407.646 344.575 407.477C327.444 389.686 314.817 340.282 314.288 338.179C314.245 338.006 314.245 337.825 314.289 337.652C314.334 337.48 314.421 337.321 314.542 337.192C314.662 337.055 314.814 336.952 314.985 336.892C315.155 336.832 315.338 336.817 315.515 336.849L465.68 364.34C465.939 364.397 466.169 364.549 466.325 364.766C466.481 364.984 466.553 365.253 466.526 365.521C465.34 376.838 466.764 388.28 470.684 398.943C474.604 409.606 480.913 419.199 489.114 426.963C489.291 427.099 489.42 427.288 489.483 427.504C489.545 427.719 489.538 427.95 489.462 428.161C489.387 428.372 489.246 428.553 489.062 428.677C488.878 428.802 488.659 428.863 488.438 428.852H488.416ZM345.844 405.717L485.265 426.234C477.701 418.379 471.909 408.951 468.29 398.602C464.671 388.252 463.311 377.228 464.305 366.293L316.763 339.274C319.132 348.051 330.933 389.9 345.844 405.717Z"/><path fill="#D1D3D4" d="M547.891 249.395H547.785L454.725 238.665C454.585 238.652 454.448 238.61 454.324 238.542C454.201 238.473 454.092 238.38 454.005 238.267C453.918 238.155 453.854 238.026 453.818 237.887C453.782 237.749 453.774 237.605 453.794 237.463C453.826 237.182 453.967 236.925 454.184 236.748C454.402 236.571 454.68 236.489 454.958 236.519L548.018 247.249C548.298 247.263 548.562 247.39 548.75 247.601C548.939 247.813 549.036 248.091 549.022 248.376C549.008 248.661 548.884 248.928 548.675 249.119C548.467 249.31 548.193 249.41 547.912 249.395H547.891Z"/><path fill="#D1D3D4" d="M544 273.689H543.873L526.403 271.672C526.264 271.655 526.13 271.61 526.008 271.541C525.886 271.471 525.779 271.378 525.692 271.267C525.606 271.155 525.542 271.027 525.504 270.89C525.467 270.754 525.456 270.611 525.472 270.47C525.489 270.329 525.533 270.193 525.601 270.069C525.67 269.945 525.762 269.837 525.872 269.749C525.982 269.661 526.108 269.596 526.242 269.558C526.377 269.52 526.518 269.509 526.657 269.526L544.106 271.522C544.245 271.529 544.381 271.563 544.506 271.624C544.632 271.684 544.745 271.769 544.838 271.874C544.931 271.978 545.003 272.101 545.05 272.234C545.097 272.366 545.117 272.507 545.11 272.648C545.103 272.789 545.069 272.927 545.01 273.055C544.95 273.182 544.866 273.297 544.763 273.391C544.66 273.486 544.54 273.559 544.409 273.607C544.278 273.654 544.139 273.675 544 273.668V273.689Z"/><path fill="#D1D3D4" d="M506.965 269.418L450.96 262.98C450.68 262.949 450.423 262.806 450.247 262.582C450.07 262.359 449.988 262.074 450.019 261.789C450.05 261.504 450.191 261.244 450.411 261.065C450.631 260.886 450.912 260.803 451.193 260.834L507.198 267.272C507.337 267.281 507.473 267.317 507.598 267.379C507.723 267.44 507.835 267.526 507.927 267.632C508.02 267.738 508.09 267.861 508.136 267.994C508.181 268.128 508.2 268.269 508.192 268.41C508.184 268.551 508.148 268.689 508.087 268.815C508.026 268.942 507.942 269.056 507.837 269.15C507.733 269.243 507.612 269.315 507.481 269.361C507.349 269.407 507.21 269.427 507.071 269.418H506.965Z"/><path fill="#D1D3D4" d="M538.246 296.33H538.119L509.334 293.025C509.055 292.988 508.802 292.841 508.628 292.617C508.454 292.392 508.374 292.108 508.404 291.824C508.441 291.541 508.585 291.283 508.806 291.107C509.028 290.931 509.308 290.849 509.588 290.879L538.352 294.206C538.49 294.219 538.625 294.26 538.747 294.327C538.869 294.394 538.977 294.486 539.064 294.596C539.151 294.706 539.215 294.833 539.252 294.968C539.29 295.104 539.3 295.246 539.283 295.386C539.252 295.644 539.13 295.882 538.939 296.056C538.749 296.23 538.503 296.327 538.246 296.33Z"/><path fill="#D1D3D4" d="M481.734 289.828H481.607L445.102 285.536C444.963 285.52 444.828 285.477 444.706 285.409C444.584 285.341 444.476 285.248 444.388 285.138C444.301 285.027 444.236 284.9 444.197 284.764C444.158 284.628 444.145 284.485 444.161 284.345C444.176 284.204 444.218 284.067 444.286 283.943C444.353 283.819 444.444 283.709 444.553 283.62C444.662 283.532 444.787 283.466 444.921 283.426C445.055 283.386 445.196 283.374 445.334 283.39L481.861 287.574C482.14 287.612 482.393 287.759 482.567 287.983C482.741 288.208 482.821 288.492 482.791 288.776C482.78 289.055 482.665 289.32 482.468 289.515C482.272 289.711 482.009 289.823 481.734 289.828Z"/><path fill="#D1D3D4" d="M533.339 317.77H533.212L509.207 314.916C508.928 314.878 508.675 314.731 508.501 314.507C508.327 314.282 508.247 313.998 508.277 313.714C508.319 313.433 508.464 313.179 508.685 313.004C508.905 312.828 509.182 312.744 509.461 312.769L533.445 315.538C533.726 315.552 533.989 315.679 534.177 315.89C534.366 316.101 534.464 316.38 534.45 316.665C534.436 316.949 534.311 317.217 534.103 317.408C533.894 317.599 533.62 317.698 533.339 317.684V317.77Z"/><path fill="#D1D3D4" d="M483.722 312.061H483.595L440.174 307.061C439.897 307.029 439.643 306.886 439.469 306.665C439.295 306.444 439.214 306.162 439.243 305.881C439.28 305.597 439.425 305.34 439.646 305.164C439.867 304.988 440.148 304.906 440.428 304.936L483.827 309.937C484.108 309.937 484.377 310.05 484.575 310.251C484.773 310.452 484.885 310.725 484.885 311.01C484.885 311.294 484.773 311.567 484.575 311.768C484.377 311.97 484.108 312.083 483.827 312.083L483.722 312.061Z"/><path fill="#D1D3D4" d="M528.242 341.506L506.944 339.059C506.667 339.027 506.414 338.885 506.24 338.663C506.065 338.442 505.984 338.16 506.014 337.879C506.027 337.738 506.068 337.602 506.134 337.478C506.2 337.354 506.29 337.245 506.398 337.156C506.507 337.068 506.632 337.003 506.765 336.965C506.899 336.927 507.039 336.917 507.177 336.935L528.475 339.381C528.756 339.398 529.018 339.528 529.204 339.741C529.391 339.954 529.486 340.234 529.469 340.519C529.452 340.803 529.325 341.069 529.115 341.258C528.904 341.448 528.629 341.544 528.348 341.527L528.242 341.506Z"/><path fill="#D1D3D4" d="M493.662 337.535H493.535L435.098 330.797C434.821 330.764 434.567 330.622 434.393 330.401C434.219 330.18 434.137 329.898 434.167 329.616C434.18 329.476 434.221 329.34 434.287 329.216C434.353 329.091 434.443 328.982 434.552 328.894C434.66 328.806 434.785 328.741 434.919 328.703C435.053 328.665 435.193 328.654 435.33 328.672L493.768 335.389C494.048 335.404 494.312 335.53 494.5 335.742C494.688 335.953 494.786 336.231 494.772 336.516C494.758 336.801 494.634 337.068 494.425 337.259C494.217 337.45 493.943 337.55 493.662 337.535Z"/><path fill="#D1D3D4" d="M522.87 360.713H522.743L497.363 357.795C497.086 357.762 496.833 357.62 496.658 357.399C496.484 357.178 496.403 356.896 496.433 356.614C496.446 356.474 496.487 356.337 496.553 356.213C496.619 356.089 496.709 355.98 496.817 355.892C496.926 355.804 497.051 355.739 497.184 355.701C497.318 355.662 497.458 355.652 497.596 355.67L522.976 358.589C523.256 358.606 523.519 358.735 523.705 358.948C523.892 359.162 523.987 359.441 523.97 359.726C523.953 360.011 523.826 360.277 523.615 360.466C523.405 360.655 523.13 360.752 522.849 360.735L522.87 360.713Z"/><path fill="#D1D3D4" d="M486.006 356.485L429.831 350.047C429.551 350.016 429.294 349.873 429.118 349.649C428.941 349.426 428.859 349.141 428.89 348.856C428.921 348.571 429.062 348.311 429.282 348.132C429.502 347.953 429.784 347.87 430.064 347.901L486.238 354.339C486.519 354.356 486.781 354.486 486.968 354.699C487.154 354.912 487.249 355.192 487.232 355.477C487.216 355.761 487.088 356.028 486.878 356.217C486.668 356.406 486.392 356.503 486.111 356.485H486.006Z"/><path fill="#fff" d="M193.896 217.019L242.447 322.91C246.468 331.679 256.733 335.481 265.375 331.401L425.516 255.801C434.158 251.721 437.904 241.305 433.884 232.536L385.332 126.645C381.311 117.876 371.046 114.074 362.404 118.154L202.264 193.754C193.622 197.834 189.875 208.25 193.896 217.019Z"/><path fill="#231F20" d="M258.136 334.23C254.645 334.235 251.226 333.228 248.281 331.327C245.336 329.426 242.987 326.71 241.512 323.5L192.867 217.612C190.821 213.143 190.608 208.034 192.274 203.406C193.939 198.778 197.348 195.01 201.75 192.932L361.898 117.325C366.301 115.249 371.337 115.032 375.898 116.723C380.459 118.413 384.172 121.871 386.22 126.338L434.76 232.227C435.776 234.437 436.353 236.83 436.458 239.267C436.563 241.704 436.193 244.138 435.37 246.43C434.547 248.723 433.287 250.828 431.661 252.625C430.036 254.423 428.078 255.878 425.898 256.907L265.75 332.514C263.364 333.638 260.766 334.224 258.136 334.23ZM369.681 117.604C367.329 117.605 365.005 118.125 362.871 119.127L202.723 194.734C198.832 196.575 195.82 199.908 194.349 204C192.878 208.092 193.067 212.61 194.876 216.56L243.521 322.47C245.34 326.419 248.628 329.476 252.664 330.969C256.701 332.461 261.156 332.268 265.052 330.432L425.115 254.825C429.006 252.984 432.018 249.652 433.489 245.56C434.96 241.467 434.771 236.95 432.962 232.999L384.317 127.089C383.014 124.263 380.947 121.871 378.355 120.192C375.764 118.512 372.756 117.615 369.681 117.604Z"/><path fill="#59C3C3" d="M333.963 168.844L346.213 195.56C349.12 201.901 356.542 204.649 362.79 201.699L381.43 192.9C387.678 189.95 390.387 182.419 387.48 176.079L375.231 149.363C372.323 143.022 364.901 140.274 358.653 143.224L340.014 152.023C333.765 154.973 331.056 162.504 333.963 168.844Z"/><path fill="#D1D3D4" d="M219.237 209.032C215.392 210.847 213.726 215.481 215.514 219.382C217.303 223.283 221.869 224.974 225.714 223.159L261.593 206.221C265.437 204.406 267.104 199.772 265.315 195.872C263.526 191.971 258.96 190.28 255.115 192.094L219.237 209.032Z"/><path fill="#D1D3D4" d="M374.173 237.369L377.608 244.86C378.509 246.827 380.811 247.679 382.749 246.764L409.75 234.018C411.688 233.103 412.528 230.767 411.626 228.8L408.191 221.309C407.29 219.342 404.988 218.49 403.049 219.405L376.049 232.151C374.111 233.066 373.271 235.402 374.173 237.369Z"/><path fill="#D1D3D4" d="M332.963 256.845L336.398 264.336C337.299 266.303 339.601 267.155 341.54 266.24L368.54 253.494C370.478 252.579 371.318 250.243 370.416 248.276L366.981 240.785C366.08 238.818 363.778 237.966 361.839 238.881L334.839 251.627C332.901 252.542 332.061 254.878 332.963 256.845Z"/><path fill="#D1D3D4" d="M291.724 276.289L295.158 283.78C296.06 285.747 298.362 286.599 300.3 285.685L327.3 272.938C329.238 272.023 330.079 269.687 329.177 267.721L325.742 260.229C324.84 258.263 322.538 257.41 320.6 258.325L293.6 271.071C291.662 271.986 290.822 274.322 291.724 276.289Z"/><path fill="#D1D3D4" d="M250.513 295.744L253.947 303.235C254.849 305.202 257.151 306.054 259.089 305.139L286.089 292.393C288.028 291.478 288.868 289.142 287.966 287.175L284.531 279.684C283.629 277.717 281.327 276.865 279.389 277.78L252.389 290.526C250.451 291.441 249.611 293.777 250.513 295.744Z"/><path fill="#fff" d="M551.232 199.027C551.055 199.028 550.88 198.984 550.725 198.897C550.569 198.811 550.438 198.685 550.344 198.533L521.982 153.465C521.848 153.226 521.809 152.945 521.873 152.678C521.938 152.411 522.101 152.179 522.328 152.031C522.556 151.882 522.831 151.828 523.098 151.879C523.364 151.93 523.6 152.083 523.758 152.306L552.12 197.374C552.272 197.613 552.323 197.903 552.264 198.181C552.204 198.459 552.039 198.701 551.803 198.855C551.636 198.973 551.436 199.033 551.232 199.027Z"/><path fill="#fff" d="M465.469 185.935C465.274 185.935 465.082 185.881 464.914 185.779C464.747 185.677 464.61 185.531 464.518 185.356L450.03 156.963C449.964 156.839 449.923 156.704 449.91 156.564C449.897 156.424 449.911 156.283 449.953 156.149C449.994 156.015 450.062 155.891 450.151 155.784C450.241 155.676 450.35 155.589 450.474 155.525C450.597 155.458 450.733 155.416 450.872 155.403C451.011 155.389 451.152 155.404 451.286 155.445C451.42 155.487 451.544 155.556 451.651 155.647C451.759 155.738 451.847 155.85 451.912 155.976L466.4 184.369C466.528 184.623 466.553 184.917 466.47 185.19C466.387 185.463 466.203 185.691 465.956 185.828C465.801 185.892 465.636 185.929 465.469 185.935Z"/><path fill="#fff" d="M229.202 352.322L220.341 362.645C214.694 369.813 196.737 364.791 180.283 351.378C163.828 337.965 155.029 321.354 160.74 314.165L169.623 303.842L229.202 352.322Z"/><path fill="#231F20" d="M211.965 367.001C203.505 367.001 191.302 361.701 179.606 352.215C172.183 346.403 165.947 339.179 161.248 330.947C157.335 323.5 156.848 317.319 159.852 313.499L168.756 303.134C168.936 302.925 169.188 302.795 169.46 302.771C169.732 302.747 170.003 302.831 170.215 303.005L229.858 351.399C229.973 351.485 230.068 351.594 230.137 351.72C230.207 351.846 230.248 351.985 230.26 352.129C230.283 352.424 230.192 352.716 230.006 352.944L221.123 363.267C219.98 364.559 218.56 365.567 216.972 366.214C215.384 366.862 213.672 367.131 211.965 367.001ZM169.665 305.323L161.48 314.916C159.09 317.942 159.683 323.5 163.109 329.938C167.67 337.926 173.727 344.933 180.938 350.562C196.653 363.439 214.313 368.568 219.516 362.001L227.68 352.472L169.665 305.323Z"/><path fill="#fff" d="M229.195 352.304C234.847 345.144 226.073 328.485 209.598 315.097C193.123 301.709 175.185 296.66 169.534 303.821C163.882 310.982 172.656 327.64 189.131 341.028C205.607 354.416 223.544 359.465 229.195 352.304Z"/><path fill="#231F20" d="M220.828 356.657C212.368 356.657 200.143 351.356 188.489 341.892C181.054 336.087 174.811 328.862 170.11 320.624C166.197 313.177 165.711 306.997 168.735 303.177C171.739 299.356 177.809 298.477 185.803 300.73C194.752 303.581 203.065 308.182 210.274 314.272C227.469 328.243 236.14 345.24 230.028 352.902C228.879 354.199 227.452 355.212 225.858 355.863C224.263 356.514 222.542 356.786 220.828 356.657ZM177.914 301.674C176.53 301.541 175.134 301.727 173.831 302.218C172.527 302.708 171.349 303.491 170.385 304.507C167.953 307.576 168.545 313.091 171.992 319.53C176.548 327.516 182.597 334.522 189.801 340.154C205.515 353.03 223.196 358.159 228.378 351.592C233.56 345.025 224.677 328.651 208.941 315.881C201.962 309.971 193.906 305.509 185.232 302.747C182.853 302.053 180.39 301.692 177.914 301.674Z"/><path fill="#D1D3D4" d="M185.507 309.722L189.377 313.456H189.821C191.069 313.692 192.254 313.864 193.523 314.186C196.857 315.091 200.008 316.588 202.829 318.607C204.592 319.821 206.192 321.264 207.587 322.899C208.464 323.784 209.048 324.924 209.258 326.161C209.301 326.599 209.211 327.04 208.999 327.423C208.787 327.807 208.464 328.116 208.074 328.307C207.461 328.736 206.784 329.123 206.107 329.552L213.383 336.57C214.63 335.668 214.081 334.145 212.367 332.278L216.83 331.505C218.187 332.7 219.295 334.16 220.087 335.797C220.423 336.412 220.569 337.117 220.505 337.817C220.441 338.518 220.17 339.182 219.728 339.724C219.283 340.218 218.67 340.647 218.12 341.141L220.764 343.695L216.534 345.047L213.827 342.45C212.515 342.45 211.289 342.45 209.935 342.45C207.326 342.197 204.783 341.47 202.427 340.304C199.231 338.871 196.353 336.798 193.967 334.209C191.535 331.505 191.006 329.38 192.507 327.942C193.51 327.067 194.675 326.403 195.934 325.989L196.441 325.796L189.06 318.714H188.849C188.681 319.171 188.568 319.647 188.51 320.131C188.75 321.1 189.292 321.965 190.054 322.599L183.138 323.028C182.588 322.427 182.038 321.848 181.552 321.268C179.775 319.122 179.098 317.341 179.648 315.946C180.01 315.272 180.533 314.701 181.168 314.285C181.804 313.869 182.532 313.621 183.286 313.564C183.519 313.564 183.519 313.435 183.286 313.199C181.954 311.954 180.642 310.688 179.331 309.422L185.507 309.722ZM202.215 331.398C201.56 331.934 200.714 332.342 200.883 333.351C201.052 334.359 203.357 336.462 205.494 337.192C206.544 337.573 207.657 337.748 208.772 337.707L202.215 331.398ZM200.523 324.208C201.094 323.886 201.665 323.629 201.75 323.049C201.898 321.976 199.635 319.937 197.309 319.079C196.315 318.693 195.363 318.478 194.263 318.156L200.523 324.208Z"/><path fill="#fff" d="M297.961 461.215L303.143 473.855C306.95 482.182 294.535 496.239 275.415 505.296C256.296 514.352 237.684 514.91 233.856 506.605L228.674 493.943L297.961 461.215Z"/><path fill="#231F20" d="M247.73 513.58C240.349 513.58 234.892 511.433 232.925 507.141L227.722 494.458C227.62 494.201 227.617 493.913 227.715 493.655C227.814 493.396 228.005 493.184 228.251 493.063L297.538 460.335C297.668 460.276 297.809 460.246 297.951 460.246C298.093 460.246 298.233 460.276 298.363 460.335C298.497 460.39 298.618 460.471 298.719 460.575C298.821 460.678 298.901 460.801 298.956 460.936L304.137 473.576C308.24 482.526 295.846 496.947 275.881 506.39C267.095 510.754 257.505 513.203 247.73 513.58ZM230.049 494.479L234.829 506.175C238.318 513.773 256.698 512.936 275.014 504.308C293.33 495.681 305.724 481.946 302.213 474.263L297.454 462.61L230.049 494.479Z"/><path fill="#fff" d="M270.216 492.65C289.35 483.609 301.768 469.538 297.951 461.222C294.135 452.905 275.529 453.493 256.395 462.534C237.26 471.575 224.843 485.647 228.66 493.963C232.476 502.279 251.082 501.692 270.216 492.65Z"/><path fill="#231F20" d="M242.484 500.896C234.87 500.896 229.646 498.621 227.679 494.458C223.449 485.487 235.949 471.044 255.915 461.623C275.88 452.201 294.746 451.836 298.87 460.829C302.994 469.821 290.601 484.242 270.635 493.685C262.203 497.857 253.051 500.321 243.69 500.939L242.484 500.896ZM284.213 456.558C274.708 456.954 265.389 459.351 256.845 463.597C238.593 472.181 226.135 485.959 229.625 493.642C231.275 497.205 236.435 499.093 243.669 498.879C252.747 498.28 261.621 495.882 269.789 491.818C288.041 483.234 300.499 469.456 296.988 461.773C295.381 458.167 290.643 456.558 284.213 456.558Z"/><path fill="#D1D3D4" d="M240.941 482.054L245.953 480.186L246.228 479.822C246.99 478.791 247.645 477.675 248.512 476.774C250.799 474.167 253.519 471.988 256.549 470.336C258.412 469.276 260.403 468.468 262.471 467.932C263.647 467.545 264.913 467.545 266.088 467.932C266.474 468.093 266.805 468.367 267.038 468.718C267.272 469.069 267.397 469.483 267.399 469.907C267.399 470.658 267.547 471.452 267.611 472.246L277.044 468.748C276.79 467.203 275.225 467.031 272.814 467.761L274.104 463.468C275.788 462.769 277.593 462.419 279.413 462.438C280.114 462.404 280.808 462.593 281.4 462.977C281.991 463.362 282.449 463.923 282.712 464.584C282.941 465.287 283.124 466.004 283.262 466.73L286.688 465.464L286.011 469.907L282.522 471.237C281.929 472.418 281.422 473.555 280.745 474.757C279.387 477.022 277.639 479.021 275.584 480.659C272.917 482.934 269.813 484.622 266.469 485.616C263 486.646 260.906 486.174 260.293 484.178C259.964 482.882 259.892 481.532 260.082 480.208C260.082 480.015 260.082 479.822 260.082 479.65L250.564 483.234L250.395 483.384C250.717 483.742 251.088 484.053 251.495 484.307C252.453 484.529 253.457 484.423 254.35 484.006L251.664 490.445C250.881 490.681 250.141 490.917 249.422 491.089C246.736 491.775 244.854 491.604 243.86 490.466C243.436 489.847 243.17 489.131 243.085 488.382C243 487.633 243.099 486.875 243.373 486.174C243.373 485.959 243.373 485.917 243.035 486.045L237.938 487.955L240.941 482.054ZM267.505 476.474C267.696 477.311 267.674 478.255 268.626 478.62C269.655 478.608 270.671 478.38 271.61 477.952C272.549 477.524 273.391 476.904 274.083 476.13C274.885 475.339 275.531 474.399 275.986 473.362L267.505 476.474ZM260.399 474.821C260.399 474.177 260.399 473.512 259.912 473.19C259.045 472.589 256.253 473.727 254.434 475.465C253.673 476.195 253.06 476.967 252.319 477.826L260.399 474.821Z"/><path fill="#fff" d="M247.308 382.239C239.778 394.965 248.217 423.165 248.217 423.165L259.363 431.406C263.336 433.831 267.741 435.438 272.327 436.136C276.912 436.834 281.588 436.608 286.087 435.472C290.587 434.336 294.821 432.312 298.55 429.516C302.279 426.719 305.428 423.204 307.818 419.173C310.208 415.141 311.792 410.672 312.479 406.019C313.167 401.366 312.945 396.622 311.825 392.056C310.706 387.49 308.711 383.193 305.955 379.41C303.199 375.627 299.735 372.431 295.762 370.006L283.411 363.847C283.411 363.847 254.837 369.534 247.308 382.239Z"/><path fill="#231F20" d="M277.488 437.608C270.914 437.596 264.466 435.771 258.834 432.328L247.582 424.045C247.4 423.904 247.267 423.709 247.201 423.486C246.842 422.306 238.741 394.664 246.398 381.681C254.096 368.804 281.972 363.031 283.156 362.795C283.371 362.732 283.598 362.732 283.812 362.795L296.206 368.954C303.029 373.107 308.322 379.415 311.275 386.913C314.227 394.41 314.675 402.682 312.552 410.463C310.428 418.243 305.848 425.103 299.515 429.99C293.182 434.877 285.445 437.523 277.488 437.522V437.608ZM249.126 422.585L259.997 430.59C267.78 435.308 277.09 436.701 285.883 434.464C294.677 432.227 302.238 426.543 306.908 418.658C311.577 410.761 312.968 401.307 310.775 392.371C308.582 383.435 302.985 375.746 295.212 370.993L283.22 365.048C279.984 365.735 254.985 371.487 248.217 382.861C241.449 394.321 248.217 419.302 249.126 422.521V422.585Z"/><path fill="#fff" d="M269.875 431.835C289.37 431.835 305.174 415.798 305.174 396.017C305.174 376.235 289.37 360.198 269.875 360.198C250.379 360.198 234.575 376.235 234.575 396.017C234.575 415.798 250.379 431.835 269.875 431.835Z"/><path fill="#231F20" d="M269.811 432.951C264.212 432.936 258.693 431.609 253.683 429.074C248.672 426.539 244.307 422.864 240.926 418.336C237.546 413.808 235.241 408.549 234.193 402.968C233.145 397.388 233.38 391.637 234.882 386.165C236.384 380.692 239.111 375.645 242.85 371.417C246.59 367.19 251.241 363.896 256.441 361.792C261.642 359.688 267.251 358.831 272.831 359.288C278.411 359.745 283.812 361.503 288.613 364.426C295.438 368.581 300.73 374.894 303.678 382.396C306.626 389.898 307.066 398.174 304.931 405.955C302.797 413.735 298.205 420.589 291.86 425.466C285.516 430.343 277.77 432.972 269.811 432.951ZM269.938 361.314C261.653 361.301 253.645 364.337 247.398 369.857C241.151 375.378 237.088 383.009 235.962 391.338C234.836 399.666 236.724 408.126 241.275 415.149C245.827 422.173 252.733 427.284 260.715 429.535C268.697 431.787 277.212 431.026 284.683 427.393C292.154 423.76 298.074 417.503 301.345 409.78C304.616 402.057 305.017 393.393 302.474 385.392C299.931 377.392 294.615 370.599 287.513 366.272C282.208 363.022 276.134 361.294 269.938 361.271V361.314Z"/><path fill="#D1D3D4" d="M250.078 379.599L254.477 382.303C254.773 382.475 254.921 382.453 255.133 382.196C256.86 380.248 259.042 378.772 261.478 377.903C264.02 376.993 266.802 377.054 269.303 378.075C269.98 378.354 270.636 378.676 271.418 378.998L267.315 385.908C266.283 385.292 265.075 385.05 263.889 385.222C262.978 385.463 262.081 385.757 261.203 386.102V386.273L269.663 391.467L270.276 390.823C271.75 389.204 273.404 387.764 275.204 386.531C276.53 385.562 278.091 384.978 279.72 384.842C281.348 384.706 282.982 385.022 284.447 385.758C287.295 386.937 289.573 389.202 290.792 392.068C291.796 394.397 292.047 396.989 291.511 399.472C291.194 401.017 290.686 402.541 290.242 404.129L293.541 406.146L289.776 412.584L286.392 410.438C285.272 411.511 284.277 412.584 283.199 413.529C281.098 415.397 278.438 416.493 275.648 416.641C273.249 416.7 270.886 416.035 268.859 414.731L272.878 407.927C274.07 408.593 275.444 408.843 276.79 408.637C278.135 408.432 279.377 407.783 280.322 406.79L271.207 401.253C270.086 402.305 268.965 403.399 267.823 404.429C266.484 405.734 264.85 406.685 263.064 407.198C261.23 407.663 259.298 407.527 257.544 406.811C255.357 406.038 253.424 404.663 251.96 402.841C250.911 401.521 250.161 399.984 249.763 398.337C249.364 396.691 249.327 394.975 249.655 393.312C249.909 391.96 250.437 390.651 250.818 389.342C250.818 389.192 250.818 389.042 250.987 388.87L246.419 386.08L250.078 379.599ZM284.087 400.33C284.576 399.205 284.738 397.962 284.552 396.746C284.363 395.712 283.806 394.785 282.987 394.14C282.169 393.495 281.145 393.178 280.111 393.248C278.648 393.657 277.323 394.466 276.283 395.587L284.087 400.33ZM256.698 392.325C256.547 393.377 256.477 394.439 256.486 395.502C256.533 396.077 256.703 396.634 256.984 397.136C257.266 397.638 257.651 398.071 258.114 398.406C258.577 398.741 259.107 398.97 259.666 399.076C260.225 399.182 260.8 399.163 261.351 399.021C262.464 398.527 263.46 397.795 264.27 396.875L256.698 392.325Z"/></svg>